<?xml version="1.0" standalone="no"?>
<!DOCTYPE svg PUBLIC "-//W3C//DTD SVG 20010904//EN"
 "http://www.w3.org/TR/2001/REC-SVG-20010904/DTD/svg10.dtd">
<svg version="1.0" xmlns="http://www.w3.org/2000/svg"
 width="500.000000pt" height="500.000000pt" viewBox="0 0 500.000000 500.000000"
 preserveAspectRatio="xMidYMid meet">

<g transform="translate(0.000000,500.000000) scale(0.100000,-0.100000)"
fill="#000000" stroke="none">
<path d="M1043 4989 c-120 -20 -245 -89 -328 -181 -56 -62 -120 -192 -134
-272 -15 -83 -15 -3989 0 -4072 6 -32 29 -97 51 -144 67 -140 190 -245 348
-296 48 -15 104 -18 425 -22 247 -2 379 0 398 7 17 7 32 23 38 41 11 30 12 30
84 30 69 0 73 -1 79 -25 15 -59 -34 -56 1002 -52 853 2 955 4 1004 20 190 58
315 175 389 365 l26 67 3 2005 c2 1464 0 2023 -9 2073 -27 163 -150 327 -300
401 -140 69 -62 66 -1619 65 -773 -1 -1428 -5 -1457 -10z m2257 -473 c20 -54
32 -56 321 -56 234 0 268 -2 273 -16 3 -9 6 -255 6 -548 0 -400 -3 -535 -12
-544 -9 -9 -330 -12 -1382 -12 -754 0 -1377 4 -1384 8 -10 7 -12 125 -10 558
l3 549 996 5 c1076 5 1019 2 1040 57 8 21 15 23 74 23 60 0 66 -2 75 -24z
m-1736 -1705 l26 -24 0 -198 0 -197 -31 -26 c-30 -26 -32 -26 -205 -26 -185 0
-221 7 -244 49 -14 27 -13 376 1 402 22 42 62 49 251 46 171 -2 177 -3 202
-26z m1126 18 c51 -18 60 -53 60 -237 0 -252 0 -252 -243 -252 -170 0 -220 9
-237 40 -6 11 -10 104 -10 212 1 206 3 218 51 237 34 14 339 14 379 0z m1186
-22 c24 -28 24 -32 24 -218 l0 -191 -30 -29 -30 -30 -191 3 -191 3 -24 28
c-24 28 -24 32 -24 215 0 201 5 222 54 242 11 5 104 8 204 7 l184 -2 24 -28z
m-2307 -923 c20 -25 21 -39 21 -218 -1 -134 -4 -196 -13 -207 -26 -34 -55 -39
-222 -39 -176 0 -223 9 -244 48 -7 13 -11 90 -11 197 0 179 8 225 42 238 7 3
102 6 210 6 l197 1 20 -26z m1152 0 c23 -25 24 -32 27 -192 2 -104 -1 -181 -8
-204 -18 -61 -42 -68 -240 -68 -184 0 -222 8 -235 51 -4 12 -7 105 -7 207 1
250 -17 232 242 232 l197 0 24 -26z m1140 13 c34 -26 39 -54 39 -227 0 -180
-8 -219 -47 -235 -32 -12 -180 -18 -289 -10 -97 6 -109 10 -130 33 -23 24 -24
30 -24 203 0 187 6 219 44 237 31 16 387 15 407 -1z m-2296 -932 c25 -24 25
-26 25 -214 0 -104 -3 -197 -6 -206 -15 -37 -56 -45 -244 -45 l-182 0 -29 29
-29 29 0 182 c0 183 5 211 39 237 11 9 73 12 209 13 192 0 193 0 217 -25z
m1156 -1 c23 -25 24 -32 27 -187 4 -187 -1 -220 -33 -253 -24 -24 -28 -24
-204 -24 -99 0 -191 4 -205 10 -44 16 -48 39 -47 244 l1 191 26 23 c24 21 32
22 218 22 l193 0 24 -26z"/>
<path d="M1686 4047 c-24 -25 -26 -32 -26 -125 0 -85 3 -101 20 -120 28 -30
80 -29 108 1 19 21 22 34 22 119 0 108 -12 133 -67 144 -26 5 -37 1 -57 -19z"/>
<path d="M3235 4058 c-39 -21 -45 -39 -45 -138 0 -88 2 -98 23 -118 31 -29 80
-29 107 0 17 19 20 35 20 120 0 92 -2 101 -25 123 -26 27 -49 31 -80 13z"/>
<path d="M2269 3927 c-49 -38 -46 -90 9 -138 127 -112 317 -112 444 0 41 36
54 72 37 104 -30 54 -81 62 -131 18 -49 -42 -71 -51 -128 -51 -56 0 -77 8
-130 52 -36 30 -74 35 -101 15z"/>
</g>
</svg>
